<?xml version="1.0" encoding="us-ascii" standalone="no"?><svg xmlns="http://www.w3.org/2000/svg" xmlns:xlink="http://www.w3.org/1999/xlink" contentStyleType="text/css" height="751px" preserveAspectRatio="none" style="width:897px;height:751px;background:#FFFFFF;" version="1.1" viewBox="0 0 897 751" width="897px" zoomAndPan="magnify"><defs/><g><!--class Observer--><g id="elem_Observer"><rect codeLine="2" fill="#F1F1F1" height="64.4883" id="Observer" rx="2.5" ry="2.5" style="stroke:#181818;stroke-width:0.5;" width="94" x="393" y="480.08"/><ellipse cx="408" cy="496.08" fill="#B4A7E5" rx="11" ry="11" style="stroke:#181818;stroke-width:1.0;"/><path d="M404.4277,492.3451 L404.4277,490.1869 L411.8071,490.1869 L411.8071,492.3451 L409.3418,492.3451 L409.3418,500.4218 L411.8071,500.4218 L411.8071,502.58 L404.4277,502.58 L404.4277,500.4218 L406.8931,500.4218 L406.8931,492.3451 Z " fill="#000000"/><text fill="#000000" font-family="sans-serif" font-size="14" font-style="italic" lengthAdjust="spacing" textLength="62" x="422" y="501.371">Observer</text><line style="stroke:#181818;stroke-width:0.5;" x1="394" x2="486" y1="512.08" y2="512.08"/><line style="stroke:#181818;stroke-width:0.5;" x1="394" x2="486" y1="520.08" y2="520.08"/><ellipse cx="404" cy="533.8241" fill="#84BE84" rx="3" ry="3" style="stroke:#038048;stroke-width:1.0;"/><text fill="#000000" font-family="sans-serif" font-size="14" lengthAdjust="spacing" textLength="58" x="413" y="537.6152">update()</text></g><!--class Subject--><g id="elem_Subject"><rect codeLine="6" fill="#F1F1F1" height="97.4648" id="Subject" rx="2.5" ry="2.5" style="stroke:#181818;stroke-width:0.5;" width="250" x="108" y="646.79"/><ellipse cx="203.75" cy="662.79" fill="#B4A7E5" rx="11" ry="11" style="stroke:#181818;stroke-width:1.0;"/><path d="M200.1777,659.0551 L200.1777,656.8969 L207.5571,656.8969 L207.5571,659.0551 L205.0918,659.0551 L205.0918,667.1318 L207.5571,667.1318 L207.5571,669.29 L200.1777,669.29 L200.1777,667.1318 L202.6431,667.1318 L202.6431,659.0551 Z " fill="#000000"/><text fill="#000000" font-family="sans-serif" font-size="14" font-style="italic" lengthAdjust="spacing" textLength="50" x="224.25" y="668.081">Subject</text><line style="stroke:#181818;stroke-width:0.5;" x1="109" x2="357" y1="678.79" y2="678.79"/><line style="stroke:#181818;stroke-width:0.5;" x1="109" x2="357" y1="686.79" y2="686.79"/><ellipse cx="119" cy="700.5341" fill="#84BE84" rx="3" ry="3" style="stroke:#038048;stroke-width:1.0;"/><text fill="#000000" font-family="sans-serif" font-size="14" lengthAdjust="spacing" textLength="206" x="128" y="704.3252">subscribe(observer: Observer)</text><ellipse cx="119" cy="717.0224" fill="#84BE84" rx="3" ry="3" style="stroke:#038048;stroke-width:1.0;"/><text fill="#000000" font-family="sans-serif" font-size="14" lengthAdjust="spacing" textLength="224" x="128" y="720.8134">unsubscribe(observer: Observer)</text><ellipse cx="119" cy="733.5107" fill="#84BE84" rx="3" ry="3" style="stroke:#038048;stroke-width:1.0;"/><text fill="#000000" font-family="sans-serif" font-size="14" lengthAdjust="spacing" textLength="118" x="128" y="737.3017">notifyObservers()</text></g><!--class DBObject--><g id="elem_DBObject"><rect codeLine="13" fill="#F1F1F1" height="146.9297" id="DBObject" rx="2.5" ry="2.5" style="stroke:#181818;stroke-width:0.5;" width="250" x="108" y="438.86"/><ellipse cx="197.75" cy="454.86" fill="#A9DCDF" rx="11" ry="11" style="stroke:#181818;stroke-width:1.0;"/><path d="M197.6133,450.2081 L196.4595,455.2799 L198.7754,455.2799 Z M196.1191,447.9669 L199.1157,447.9669 L202.4609,460.36 L200.0122,460.36 L199.2485,457.297 L195.9697,457.297 L195.2227,460.36 L192.7739,460.36 Z " fill="#000000"/><text fill="#000000" font-family="sans-serif" font-size="14" font-style="italic" lengthAdjust="spacing" textLength="62" x="218.25" y="460.151">DBObject</text><line style="stroke:#181818;stroke-width:0.5;" x1="109" x2="357" y1="470.86" y2="470.86"/><rect fill="none" height="6" style="stroke:#C82930;stroke-width:1.0;" width="6" x="116" y="481.6041"/><text fill="#000000" font-family="sans-serif" font-size="14" lengthAdjust="spacing" textLength="61" x="128" y="488.3952">id: string</text><rect fill="none" height="6" style="stroke:#C82930;stroke-width:1.0;" width="6" x="116" y="498.0924"/><text fill="#000000" font-family="sans-serif" font-size="14" lengthAdjust="spacing" textLength="180" x="128" y="504.8834">observers: Set&lt;Observer&gt;</text><line style="stroke:#181818;stroke-width:1.0;" x1="109" x2="357" y1="511.8366" y2="511.8366"/><ellipse cx="119" cy="525.5807" fill="#84BE84" rx="3" ry="3" style="stroke:#038048;stroke-width:1.0;"/><text fill="#000000" font-family="sans-serif" font-size="14" lengthAdjust="spacing" textLength="97" x="128" y="529.3717">getId() : string</text><ellipse cx="119" cy="542.069" fill="#84BE84" rx="3" ry="3" style="stroke:#038048;stroke-width:1.0;"/><text fill="#000000" font-family="sans-serif" font-size="14" lengthAdjust="spacing" textLength="206" x="128" y="545.86">subscribe(observer: Observer)</text><ellipse cx="119" cy="558.5573" fill="#84BE84" rx="3" ry="3" style="stroke:#038048;stroke-width:1.0;"/><text fill="#000000" font-family="sans-serif" font-size="14" lengthAdjust="spacing" textLength="224" x="128" y="562.3483">unsubscribe(observer: Observer)</text><ellipse cx="119" cy="575.0455" fill="#84BE84" rx="3" ry="3" style="stroke:#038048;stroke-width:1.0;"/><text fill="#000000" font-family="sans-serif" font-size="14" lengthAdjust="spacing" textLength="118" x="128" y="578.8366">notifyObservers()</text></g><!--class DRCViolation--><g id="elem_DRCViolation"><rect codeLine="23" fill="#F1F1F1" height="146.9297" id="DRCViolation" rx="2.5" ry="2.5" style="stroke:#181818;stroke-width:0.5;" width="311" x="284.5" y="214.93"/><ellipse cx="390.75" cy="230.93" fill="#ADD1B2" rx="11" ry="11" style="stroke:#181818;stroke-width:1.0;"/><path d="M393.2231,237.0731 Q392.6421,237.3719 392.0029,237.5213 Q391.3638,237.6707 390.6582,237.6707 Q388.1514,237.6707 386.8315,236.0189 Q385.5117,234.367 385.5117,231.2459 Q385.5117,228.1165 386.8315,226.4647 Q388.1514,224.8128 390.6582,224.8128 Q391.3638,224.8128 392.0112,224.9622 Q392.6587,225.1116 393.2231,225.4105 L393.2231,228.1331 Q392.5923,227.5521 391.9988,227.2823 Q391.4053,227.0125 390.7744,227.0125 Q389.4297,227.0125 388.7449,228.0792 Q388.0601,229.1458 388.0601,231.2459 Q388.0601,233.3377 388.7449,234.4044 Q389.4297,235.471 390.7744,235.471 Q391.4053,235.471 391.9988,235.2012 Q392.5923,234.9315 393.2231,234.3504 Z " fill="#000000"/><text fill="#000000" font-family="sans-serif" font-size="14" lengthAdjust="spacing" textLength="90" x="411.25" y="236.221">DRCViolation</text><line style="stroke:#181818;stroke-width:0.5;" x1="285.5" x2="594.5" y1="246.93" y2="246.93"/><rect fill="none" height="6" style="stroke:#C82930;stroke-width:1.0;" width="6" x="292.5" y="257.6741"/><text fill="#000000" font-family="sans-serif" font-size="14" lengthAdjust="spacing" textLength="75" x="304.5" y="264.4652">stale : bool</text><rect fill="none" height="6" style="stroke:#C82930;stroke-width:1.0;" width="6" x="292.5" y="274.1624"/><text fill="#000000" font-family="sans-serif" font-size="14" lengthAdjust="spacing" textLength="120" x="304.5" y="280.9534">violationId: string</text><rect fill="none" height="6" style="stroke:#C82930;stroke-width:1.0;" width="6" x="292.5" y="290.6507"/><text fill="#000000" font-family="sans-serif" font-size="14" lengthAdjust="spacing" textLength="257" x="304.5" y="297.4417">involvedObjects : pair&lt;string, string&gt;</text><line style="stroke:#181818;stroke-width:1.0;" x1="285.5" x2="594.5" y1="304.3948" y2="304.3948"/><ellipse cx="295.5" cy="318.139" fill="#84BE84" rx="3" ry="3" style="stroke:#038048;stroke-width:1.0;"/><text fill="#000000" font-family="sans-serif" font-size="14" lengthAdjust="spacing" textLength="58" x="304.5" y="321.93">update()</text><ellipse cx="295.5" cy="334.6273" fill="#84BE84" rx="3" ry="3" style="stroke:#038048;stroke-width:1.0;"/><text fill="#000000" font-family="sans-serif" font-size="14" lengthAdjust="spacing" textLength="97" x="304.5" y="338.4183">isStale() : bool</text><ellipse cx="295.5" cy="351.1155" fill="#84BE84" rx="3" ry="3" style="stroke:#038048;stroke-width:1.0;"/><text fill="#000000" font-family="sans-serif" font-size="14" lengthAdjust="spacing" textLength="285" x="304.5" y="354.9066">getInvolvedObjects(): pair&lt;string, string&gt;</text></g><!--class DRCEngine--><g id="elem_DRCEngine"><rect codeLine="33" fill="#F1F1F1" height="146.9297" id="DRCEngine" rx="2.5" ry="2.5" style="stroke:#181818;stroke-width:0.5;" width="574" x="7" y="7"/><ellipse cx="251.75" cy="23" fill="#ADD1B2" rx="11" ry="11" style="stroke:#181818;stroke-width:1.0;"/><path d="M254.2231,29.1431 Q253.6421,29.4419 253.0029,29.5913 Q252.3638,29.7407 251.6582,29.7407 Q249.1514,29.7407 247.8315,28.0889 Q246.5117,26.437 246.5117,23.3159 Q246.5117,20.1865 247.8315,18.5347 Q249.1514,16.8828 251.6582,16.8828 Q252.3638,16.8828 253.0112,17.0322 Q253.6587,17.1816 254.2231,17.4805 L254.2231,20.2031 Q253.5923,19.6221 252.9988,19.3523 Q252.4053,19.0825 251.7744,19.0825 Q250.4297,19.0825 249.7449,20.1492 Q249.0601,21.2158 249.0601,23.3159 Q249.0601,25.4077 249.7449,26.4744 Q250.4297,27.541 251.7744,27.541 Q252.4053,27.541 252.9988,27.2712 Q253.5923,27.0015 254.2231,26.4204 Z " fill="#000000"/><text fill="#000000" font-family="sans-serif" font-size="14" lengthAdjust="spacing" textLength="76" x="272.25" y="28.291">DRCEngine</text><line style="stroke:#181818;stroke-width:0.5;" x1="8" x2="580" y1="39" y2="39"/><rect fill="none" height="6" style="stroke:#C82930;stroke-width:1.0;" width="6" x="15" y="49.7441"/><text fill="#000000" font-family="sans-serif" font-size="14" lengthAdjust="spacing" textLength="548" x="27" y="56.5352">objectViolations: unordered_map&lt;string, shared_ptr&lt;DRCViolations&gt;&gt; objects;</text><rect fill="none" height="6" style="stroke:#C82930;stroke-width:1.0;" width="6" x="15" y="66.2324"/><text fill="#000000" font-family="sans-serif" font-size="14" lengthAdjust="spacing" text-decoration="underline" textLength="145" x="27" y="73.0234">instance : DRCEngine</text><line style="stroke:#181818;stroke-width:1.0;" x1="8" x2="580" y1="79.9766" y2="79.9766"/><ellipse cx="18" cy="93.7207" fill="#84BE84" rx="3" ry="3" style="stroke:#038048;stroke-width:1.0;"/><text fill="#000000" font-family="sans-serif" font-size="14" lengthAdjust="spacing" textLength="265" x="27" y="97.5117">createViolation(id1: string, id2 : string)</text><ellipse cx="18" cy="110.209" fill="#84BE84" rx="3" ry="3" style="stroke:#038048;stroke-width:1.0;"/><text fill="#000000" font-family="sans-serif" font-size="14" lengthAdjust="spacing" textLength="187" x="27" y="114">updateViolations(id: string)</text><ellipse cx="18" cy="126.6973" fill="#84BE84" rx="3" ry="3" style="stroke:#038048;stroke-width:1.0;"/><text fill="#000000" font-family="sans-serif" font-size="14" lengthAdjust="spacing" textLength="190" x="27" y="130.4883">removeViolations(id: string)</text><ellipse cx="18" cy="143.1855" fill="#84BE84" rx="3" ry="3" style="stroke:#038048;stroke-width:1.0;"/><text fill="#000000" font-family="sans-serif" font-size="14" lengthAdjust="spacing" textLength="177" x="27" y="146.9766">getInstance() : DRCEngine</text></g><g id="elem_GMN12"><path d="M615.5,52.5 L615.5,76.46 L581.32,80.46 L615.5,84.46 L615.5,108.4316 A0,0 0 0 0 615.5,108.4316 L890.5,108.4316 A0,0 0 0 0 890.5,108.4316 L890.5,62.5 L880.5,52.5 L615.5,52.5 A0,0 0 0 0 615.5,52.5 " fill="#FEFFDD" style="stroke:#181818;stroke-width:0.5;"/><path d="M880.5,52.5 L880.5,62.5 L890.5,62.5 L880.5,52.5 " fill="#FEFFDD" style="stroke:#181818;stroke-width:0.5;"/><text fill="#000000" font-family="sans-serif" font-size="13" lengthAdjust="spacing" textLength="112" x="621.5" y="70.0684">Singleton pattern:</text><text fill="#000000" font-family="sans-serif" font-size="13" lengthAdjust="spacing" textLength="254" x="621.5" y="85.3789">- getInstance() returns the only instance</text><text fill="#000000" font-family="sans-serif" font-size="13" lengthAdjust="spacing" textLength="198" x="621.5" y="100.6895">- instance is static (underlined)</text></g><!--link DBObject to Subject--><g id="link_DBObject_Subject"><path codeLine="43" d="M233,586.24 C233,606.49 233,609.98 233,628.43 " fill="none" id="DBObject-to-Subject" style="stroke:#181818;stroke-width:1.0;stroke-dasharray:7.0,7.0;"/><polygon fill="none" points="233,646.43,239,628.43,227,628.43,233,646.43" style="stroke:#181818;stroke-width:1.0;"/></g><!--link DRCViolation to Observer--><g id="link_DRCViolation_Observer"><path codeLine="44" d="M440,362.06 C440,401.88 440,431.2 440,461.72 " fill="none" id="DRCViolation-to-Observer" style="stroke:#181818;stroke-width:1.0;stroke-dasharray:7.0,7.0;"/><polygon fill="none" points="440,479.72,446,461.72,434,461.72,440,479.72" style="stroke:#181818;stroke-width:1.0;"/></g><!--link DRCViolation to DBObject--><g id="link_DRCViolation_DBObject"><path codeLine="45" d="M372.22,362.06 C349.35,386.58 332.0051,405.1748 309.1151,429.7148 " fill="none" id="DRCViolation-to-DBObject" style="stroke:#181818;stroke-width:1.0;"/><polygon fill="none" points="300.93,438.49,307.9476,436.8308,309.1151,429.7148,302.0975,431.374,300.93,438.49" style="stroke:#181818;stroke-width:1.0;"/><text fill="#000000" font-family="sans-serif" font-size="13" lengthAdjust="spacing" textLength="56" x="343.71" y="405.4284">observes</text><text fill="#000000" font-family="sans-serif" font-size="13" lengthAdjust="spacing" textLength="22" x="342.7113" y="382.3792">1..*</text><text fill="#000000" font-family="sans-serif" font-size="13" lengthAdjust="spacing" textLength="24" x="282.4356" y="428.0672">1..2</text></g><!--reverse link DRCEngine to DRCViolation--><g id="link_DRCEngine_DRCViolation"><path codeLine="48" d="M352.6179,164.1411 C366.4779,183.7011 374.53,195.05 388.39,214.6 " fill="none" id="DRCEngine-backto-DRCViolation" style="stroke:#181818;stroke-width:1.0;"/><polygon fill="#181818" points="345.68,154.35,345.8852,161.5582,352.6179,164.1411,352.4126,156.9329,345.68,154.35" style="stroke:#181818;stroke-width:1.0;"/></g><!--reverse link DRCEngine to DBObject--><g id="link_DRCEngine_DBObject"><path codeLine="49" d="M275.7089,166.1014 C271.7389,185.7114 270.12,195.2 267,214.93 C254.98,290.9 245.46,378.46 239.59,438.61 " fill="none" id="DRCEngine-backto-DBObject" style="stroke:#181818;stroke-width:1.0;"/><polygon fill="none" points="278.09,154.34,272.979,159.427,275.7089,166.1014,280.8199,161.0144,278.09,154.34" style="stroke:#181818;stroke-width:1.0;"/></g><!--SRC=[lLJ1Rfmm4BtxAqPx2IHXg-H848ScFUmfKbVgjJ9uTjSLQoFR84Lf_ps3ZGr8LPLJES7C-CrxRyRSm44vD2VUecKoli9hOz6CQE2T0JrtGo-umondVzYgwZWqlx1riSWEZMsDR33Jy_4o0UKpZlf4aT9EdjvYq8QkD_2i3OBGLouLj1stbXZpnZh3YSBBrzSrbqAA4YWbrNdw3B7Oq9PmH5V51dKgA4B_Cxg3o7A82Fz1dTS3Bz-VVqZTSIUrWlU5k7MyGwBJQDs5o1ZB3cB3if1grDs88hXXwL3FfQb2oVrSMc_afjdwBscFKpSlF_NpbcoHi_plq9xrMj4tTPOAuroqFvrKqYW6fOr0W-BdbVSBseLFeTwPQksAhMi84FOf05P3BHKPfDh9eTIl-Z9iLRO6IMK2ogHuYCxTWnIFQThvsfMbSRPir5nXyAh7VrPurm8tx-VYncnIsjhz_dSThnFRh87Fn6tPfdOF-_tjZXHg__guMsv12VF-sN1phhssqX_YIi2HA7Rej68BezkYsEpVAgMdr8pC6EqlWf7dYmDzMYIHuWHBY-7e7w5A2XQmTS6W6uoou2u4hBetYDFpjMcKqfALHAI5R52q7Xsr43b3OZyH-000]--></g></svg>